<svg xmlns="http://www.w3.org/2000/svg" height="128" width="128" fill="#111" viewBox="0 0 138.667 170.667"><path d="M76.8 29.44v-.427q0-2.987 1.92-5.333t4.907-2.347 5.333 1.92 2.56 5.12-1.92 5.333-5.12 2.133l-1.28.427.427.64-.427 2.347-.853 6.827q.427.427.427.853l-.853 4.267q-.427.853-.853 1.28l-.427 1.707q-.853 3.413-1.493 5.547t-1.067 3.413V64q-.427 2.133-.64 3.413t-1.493 4.267q-.853 1.707 0 5.547l.427.427q0 1.28 1.067 2.987t1.067 2.987q.427 8.533-1.28 14.507l.853 2.56q5.12 2.56 2.987 5.547l2.133.853q5.12 2.56 7.253 4.48t4.267 4.053q1.707.427 2.56 1.28l1.28.427q8.96 5.973 17.92 14.507l1.707 1.28v.427l-.427.853 1.28.853h.427q1.28.853 1.707.853h.427q.427 0 .853-.427l.853-.427q.853-.853 1.707-1.28h1.707q.427 0 0 .427l-1.707.853-2.133 2.56h2.987l2.987.427q1.28-.427 2.133-.853l2.133-1.28q1.28-.427 2.56.853h.427q.427.427-.427 1.28l-5.12 4.693q-2.133 1.707-3.84 2.133l-5.547 3.84q-.427.427-.853 0l-1.28-1.707-.853-1.707-1.067-1.493-1.28-1.707-1.067-1.28-.853-1.067-1.707-1.28q-.853 0-1.707-.427l-5.547-4.267q-1.28 0-2.987-1.28-6.4-5.547-8.533-6.827l-2.56-1.707-5.12-.853q-2.56-.427-6.827-2.56l-3.413-1.707q-3.413-1.707-4.693-1.707l-1.707-.853q-1.707-.427-2.56-.853l-.853-.853q-.853 0-1.707.427l-8.533 4.267-10.667 4.693q-4.267 3.413-8.107 5.547l-4.693 2.133-7.253 5.12q-.853.853-1.707 0l-.853.853q-1.28.427-1.707.427l-1.707.853v.853h-.853l-.853 1.28q-.853 1.707-1.707 1.92t-1.067.64-.427.64l-.853.853-1.28.853-1.92-.213-2.56.427-1.707.427q-2.133.427-3.413-.64t-2.133-3.2q-.853-1.28.853-2.133l.427-.427q.427-.427 1.28-.427h2.56l3.411-1.278 1.707-.427q0-.853.427-1.28.427-.427 1.28-.427v-.427q-.427-.853-.427-1.707-.427-.853-.213-1.28t.427-.427h.213l.427 1.28q.427 2.133 1.28 1.28l.427-.853q.427-.853 1.28-.853l.853.853.853-.853-.427-.427q0-.427.427-.427l1.707-1.707q2.133-2.56 5.12-4.693 5.973-4.693 12.8-7.253 2.133-2.133 4.693-2.133 1.707-2.987 5.12-6.4 2.987-2.133 4.267-2.987.853-1.707 2.133-1.707h.426l.853-.853q.853-.427 1.28-.853v-2.133q0-2.133.427-3.413t2.133-1.28l1.707-1.707q-.853-1.707-.853-3.84h-.427q-.853-1.28-.853-2.56-1.28-2.133-1.707-3.413h-1.28q-.427 1.28-2.133 1.707l-.427.853q-1.707 2.987-2.987 4.48t-4.693 3.627q-2.133 2.133-2.987 4.693-.427 1.28 0 2.56l-.427.853h.427q0 .853.427.853h.427q.853.427.853 1.067t-1.28.427-1.92-.853-1.067-.64l-1.28 1.28q-.853 1.28-1.707 1.067t-.427-.64l.427-.427q.427-.853 0-.853l-3.413.853q-.427.427-1.067 0t.213-.853l2.133-.853q0-.427-.427-.427-1.707.853-3.413.427l-2.133-.427-.427-.427q0-.427.427-.427 1.707.427 4.267-.427l2.987-1.28 3.413-3.84.427-.853q1.707-3.413 3.627-6.187t4.053-4.48l.427-1.707q.853-1.707 1.707-2.987t2.133-3.413l1.28-1.707q1.707-2.56 3.84-2.56l1.28-1.28q.427-.427.427-1.28l.853-.853-.427-.427q-2.56-2.133-2.56-3.84-.427-2.987 1.92-5.12t4.693-1.92 3.627 1.493l.853.853q.427 0 .427.427l1.707.853v1.28q.853.853.853 1.28.853-1.28 2.56-2.987l2.133-6.827q0-1.707.853-3.413l.853-1.28v-.853l1.28-5.12h.853l1.28-5.12q.427-1.28 0-2.987l-1.707-4.267z"/></svg>